<mxfile host="app.diagrams.net" agent="Mozilla/5.0 (Windows NT 10.0; Win64; x64) AppleWebKit/537.36 (KHTML, like Gecko) Chrome/140.0.0.0 Safari/537.36" version="28.2.3">
  <diagram id="vqQvpvhE6BTxfRAIwrZd" name="ページ1">
    <mxGraphModel dx="786" dy="417" grid="1" gridSize="10" guides="1" tooltips="1" connect="1" arrows="1" fold="1" page="1" pageScale="1" pageWidth="827" pageHeight="1169" math="0" shadow="0">
      <root>
        <mxCell id="0" />
        <mxCell id="1" parent="0" />
        <mxCell id="sSED0naCx4f7dk0FFcHF-1" value="生徒&lt;div&gt;&lt;br&gt;&lt;/div&gt;" style="shape=umlActor;verticalLabelPosition=bottom;verticalAlign=top;html=1;outlineConnect=0;" vertex="1" parent="1">
          <mxGeometry x="50" y="60" width="30" height="60" as="geometry" />
        </mxCell>
        <mxCell id="sSED0naCx4f7dk0FFcHF-2" value="教職員&lt;div&gt;&lt;br&gt;&lt;/div&gt;" style="shape=umlActor;verticalLabelPosition=bottom;verticalAlign=top;html=1;outlineConnect=0;" vertex="1" parent="1">
          <mxGeometry x="50" y="230" width="30" height="60" as="geometry" />
        </mxCell>
        <mxCell id="sSED0naCx4f7dk0FFcHF-4" value="図書の予約" style="shape=umlBoundary;whiteSpace=wrap;html=1;" vertex="1" parent="1">
          <mxGeometry x="150" y="80" width="100" height="80" as="geometry" />
        </mxCell>
        <mxCell id="sSED0naCx4f7dk0FFcHF-5" value="返却の連絡" style="shape=umlBoundary;whiteSpace=wrap;html=1;" vertex="1" parent="1">
          <mxGeometry x="150" y="250" width="100" height="80" as="geometry" />
        </mxCell>
        <mxCell id="sSED0naCx4f7dk0FFcHF-6" value="予約の処理" style="ellipse;shape=umlControl;whiteSpace=wrap;html=1;" vertex="1" parent="1">
          <mxGeometry x="360" y="90" width="70" height="80" as="geometry" />
        </mxCell>
        <mxCell id="sSED0naCx4f7dk0FFcHF-7" value="図書の返却" style="ellipse;shape=umlControl;whiteSpace=wrap;html=1;" vertex="1" parent="1">
          <mxGeometry x="379" y="250" width="70" height="80" as="geometry" />
        </mxCell>
        <mxCell id="sSED0naCx4f7dk0FFcHF-8" value="予約の記録" style="ellipse;shape=umlEntity;whiteSpace=wrap;html=1;" vertex="1" parent="1">
          <mxGeometry x="570" y="170" width="80" height="80" as="geometry" />
        </mxCell>
        <mxCell id="sSED0naCx4f7dk0FFcHF-9" value="" style="endArrow=classic;html=1;rounded=0;" edge="1" parent="1" source="sSED0naCx4f7dk0FFcHF-1" target="sSED0naCx4f7dk0FFcHF-4">
          <mxGeometry width="50" height="50" relative="1" as="geometry">
            <mxPoint x="100" y="140" as="sourcePoint" />
            <mxPoint x="150" y="90" as="targetPoint" />
          </mxGeometry>
        </mxCell>
        <mxCell id="sSED0naCx4f7dk0FFcHF-10" value="" style="endArrow=classic;html=1;rounded=0;" edge="1" parent="1" source="sSED0naCx4f7dk0FFcHF-4" target="sSED0naCx4f7dk0FFcHF-6">
          <mxGeometry width="50" height="50" relative="1" as="geometry">
            <mxPoint x="300" y="190" as="sourcePoint" />
            <mxPoint x="350" y="140" as="targetPoint" />
          </mxGeometry>
        </mxCell>
        <mxCell id="sSED0naCx4f7dk0FFcHF-11" value="" style="endArrow=classic;html=1;rounded=0;" edge="1" parent="1" source="sSED0naCx4f7dk0FFcHF-8" target="sSED0naCx4f7dk0FFcHF-7">
          <mxGeometry width="50" height="50" relative="1" as="geometry">
            <mxPoint x="490" y="240" as="sourcePoint" />
            <mxPoint x="540" y="190" as="targetPoint" />
          </mxGeometry>
        </mxCell>
        <mxCell id="sSED0naCx4f7dk0FFcHF-12" value="" style="endArrow=classic;html=1;rounded=0;exitX=0.924;exitY=0.767;exitDx=0;exitDy=0;exitPerimeter=0;" edge="1" parent="1" source="sSED0naCx4f7dk0FFcHF-6" target="sSED0naCx4f7dk0FFcHF-8">
          <mxGeometry width="50" height="50" relative="1" as="geometry">
            <mxPoint x="490" y="200" as="sourcePoint" />
            <mxPoint x="540" y="150" as="targetPoint" />
          </mxGeometry>
        </mxCell>
        <mxCell id="sSED0naCx4f7dk0FFcHF-13" value="" style="endArrow=classic;html=1;rounded=0;" edge="1" parent="1" source="sSED0naCx4f7dk0FFcHF-7" target="sSED0naCx4f7dk0FFcHF-5">
          <mxGeometry width="50" height="50" relative="1" as="geometry">
            <mxPoint x="320" y="330" as="sourcePoint" />
            <mxPoint x="370" y="280" as="targetPoint" />
          </mxGeometry>
        </mxCell>
        <mxCell id="sSED0naCx4f7dk0FFcHF-14" value="" style="endArrow=classic;html=1;rounded=0;" edge="1" parent="1" source="sSED0naCx4f7dk0FFcHF-2" target="sSED0naCx4f7dk0FFcHF-4">
          <mxGeometry width="50" height="50" relative="1" as="geometry">
            <mxPoint x="110" y="330" as="sourcePoint" />
            <mxPoint x="160" y="280" as="targetPoint" />
          </mxGeometry>
        </mxCell>
      </root>
    </mxGraphModel>
  </diagram>
</mxfile>
